<svg xmlns:mydata="http://www.w3.org/2000/svg" mydata:contrastcolor="2E008B" mydata:template="BlackAndHighlightColorHex1" mydata:presentation="2.5" mydata:layouttype="undefined" mydata:specialfontid="undefined" mydata:id1="971" mydata:id2="114" mydata:companyname="Skyline engineering solutions ltd" mydata:companytagline="" version="1.1" xmlns="http://www.w3.org/2000/svg" xmlns:xlink="http://www.w3.org/1999/xlink" viewBox="0 45 550 380">
<g fill="#ef3340" fill-rule="nonzero" stroke="none" stroke-width="1" stroke-linecap="butt" stroke-linejoin="miter" stroke-miterlimit="10" stroke-dasharray="" stroke-dashoffset="0" font-family="none" font-weight="none" font-size="none" text-anchor="none" style="mix-blend-mode: normal"><g data-paper-data="{&quot;isGlobalGroup&quot;:true,&quot;bounds&quot;:{&quot;x&quot;:65,&quot;y&quot;:187.19993605956626,&quot;width&quot;:420,&quot;height&quot;:95.60012788086749}}"><g data-paper-data="{&quot;isSecondaryText&quot;:true}"><path d="M65,282.80006v0h10.09892v-3.35894h-6.76208v-3.33684h6.76208v-3.35894h-6.76208v-3.33684h6.76208v-3.35894h-10.09892z" data-paper-data="{&quot;glyphName&quot;:&quot;E&quot;,&quot;glyphIndex&quot;:0,&quot;firstGlyphOfWord&quot;:true,&quot;word&quot;:1}"></path><path d="M91.85678,277.2313v0l-6.69578,-11.18173h-3.9114v16.7505h3.33684v-11.15963l6.71788,11.15963h3.8893v-16.7505h-3.33684z" data-paper-data="{&quot;glyphName&quot;:&quot;N&quot;,&quot;glyphIndex&quot;:1,&quot;word&quot;:1}"></path><path d="M109.71956,266.04956v0c-4.61854,0 -8.37525,3.75671 -8.37525,8.37525c0,4.61854 3.75671,8.37525 8.37525,8.37525c4.61854,0 8.37525,-3.75671 8.37525,-8.37525c0,-0.11049 -0.0221,-0.22098 -0.0221,-0.33147h-3.33684h-3.35894h-1.65737v3.35894h4.02189c-0.92813,1.21541 -2.38661,2.01094 -4.02189,2.01094c-2.78438,0 -5.03841,-2.25403 -5.03841,-5.03841c0,-2.76229 2.25403,-5.01631 5.03841,-5.01631c1.3038,0 2.5192,0.50826 3.40314,1.348l2.36452,-2.38661c-1.50268,-1.43639 -3.53573,-2.32032 -5.76765,-2.32032z" data-paper-data="{&quot;glyphName&quot;:&quot;G&quot;,&quot;glyphIndex&quot;:2,&quot;word&quot;:1}"></path><path d="M124.2455,282.80006v0h3.33684v-16.7505h-3.33684z" data-paper-data="{&quot;glyphName&quot;:&quot;I&quot;,&quot;glyphIndex&quot;:3,&quot;word&quot;:1}"></path><path d="M144.34021,277.2313v0l-6.69578,-11.18173h-3.9114v16.7505h3.33684v-11.15963l6.71788,11.15963h3.8893v-16.7505h-3.33684z" data-paper-data="{&quot;glyphName&quot;:&quot;N&quot;,&quot;glyphIndex&quot;:4,&quot;word&quot;:1}"></path><path d="M153.82774,282.80006v0h10.09892v-3.35894h-6.76208v-3.33684h6.76208v-3.35894h-6.76208v-3.33684h6.76208v-3.35894h-10.09892z" data-paper-data="{&quot;glyphName&quot;:&quot;E&quot;,&quot;glyphIndex&quot;:5,&quot;word&quot;:1}"></path><path d="M170.07734,282.80006v0h10.09892v-3.35894h-6.76208v-3.33684h6.76208v-3.35894h-6.76208v-3.33684h6.76208v-3.35894h-10.09892z" data-paper-data="{&quot;glyphName&quot;:&quot;E&quot;,&quot;glyphIndex&quot;:6,&quot;word&quot;:1}"></path><path d="M186.32695,282.80006v0h3.33684v-6.69578h0.66295l3.02747,6.69578h3.66832l-3.29264,-7.29243c1.56898,-0.83973 2.6297,-2.5192 2.6297,-4.41966c0,-2.78438 -2.23193,-5.03841 -5.01631,-5.03841h-5.01631zM189.66379,272.74534v0v-3.33684h1.67947c0.92813,0 1.67947,0.75134 1.67947,1.67947c0,0.90603 -0.75134,1.65737 -1.67947,1.65737z" data-paper-data="{&quot;glyphName&quot;:&quot;R&quot;,&quot;glyphIndex&quot;:7,&quot;word&quot;:1}"></path><path d="M202.84173,282.80006v0h3.33684v-16.7505h-3.33684z" data-paper-data="{&quot;glyphName&quot;:&quot;I&quot;,&quot;glyphIndex&quot;:8,&quot;word&quot;:1}"></path><path d="M222.93644,277.2313v0l-6.69578,-11.18173h-3.9114v16.7505h3.33684v-11.15963l6.71788,11.15963h3.8893v-16.7505h-3.33684z" data-paper-data="{&quot;glyphName&quot;:&quot;N&quot;,&quot;glyphIndex&quot;:9,&quot;word&quot;:1}"></path><path d="M240.79922,266.04956v0c-4.61854,0 -8.37525,3.75671 -8.37525,8.37525c0,4.61854 3.75671,8.37525 8.37525,8.37525c4.61854,0 8.37525,-3.75671 8.37525,-8.37525c0,-0.11049 -0.0221,-0.22098 -0.0221,-0.33147h-3.33684h-3.35894h-1.65737v3.35894h4.02189c-0.92813,1.21541 -2.38661,2.01094 -4.02189,2.01094c-2.78438,0 -5.03841,-2.25403 -5.03841,-5.03841c0,-2.76229 2.25403,-5.01631 5.03841,-5.01631c1.3038,0 2.5192,0.50826 3.40314,1.348l2.36452,-2.38661c-1.50268,-1.43639 -3.53573,-2.32032 -5.76765,-2.32032z" data-paper-data="{&quot;glyphName&quot;:&quot;G&quot;,&quot;glyphIndex&quot;:10,&quot;lastGlyphOfWord&quot;:true,&quot;word&quot;:1}"></path><path d="M270.38146,275.97169v0c0.83973,0.19888 2.16563,0.06629 2.96117,0.53036c0.46406,0.26518 0.66295,0.77344 0.66295,1.2817c0,0.92813 -0.75134,1.67947 -1.65737,1.67947c-1.3259,0 -2.5192,-0.50826 -3.42523,-1.348l-2.36452,2.36452c1.50268,1.43639 3.53573,2.32032 5.78975,2.32032c2.76229,0 5.01631,-2.25403 5.01631,-5.01631c0,-2.82858 -2.09934,-4.72903 -4.83952,-4.86162c-0.83973,-0.0442 -1.70157,-0.15469 -2.23193,-0.75134c-0.24308,-0.30938 -0.39777,-0.68505 -0.39777,-1.08282c0,-0.92813 0.75134,-1.67947 1.67947,-1.67947c1.01652,0 1.96675,0.30938 2.74019,0.81764l2.40871,-2.40871c-1.41429,-1.10491 -3.20425,-1.76786 -5.1489,-1.76786c-2.76229,0 -5.01631,2.25403 -5.01631,5.03841c0,2.36452 1.63527,4.33126 3.823,4.88372z" data-paper-data="{&quot;glyphName&quot;:&quot;S&quot;,&quot;glyphIndex&quot;:11,&quot;firstGlyphOfWord&quot;:true,&quot;word&quot;:2}"></path><path d="M291.44849,266.04956v0c-4.61854,0 -8.37525,3.75671 -8.37525,8.37525c0,4.61854 3.75671,8.37525 8.37525,8.37525c4.61854,0 8.37525,-3.75671 8.37525,-8.37525c0,-4.61854 -3.75671,-8.37525 -8.37525,-8.37525zM291.44849,269.4085v0c2.76229,0 5.01631,2.25403 5.01631,5.01631c0,2.78438 -2.25403,5.03841 -5.01631,5.03841c-2.78438,0 -5.03841,-2.25403 -5.03841,-5.03841c0,-2.76229 2.25403,-5.01631 5.03841,-5.01631z" data-paper-data="{&quot;glyphName&quot;:&quot;O&quot;,&quot;glyphIndex&quot;:12,&quot;word&quot;:2}"></path><path d="M305.97443,282.80006v0h9.43597v-3.35894h-6.09913v-13.39156h-3.33684z" data-paper-data="{&quot;glyphName&quot;:&quot;L&quot;,&quot;glyphIndex&quot;:13,&quot;word&quot;:2}"></path><path d="M333.89193,276.41366v0v-10.3641h-3.33684v10.3641c0,1.67947 -1.37009,3.04956 -3.04956,3.04956c-1.67947,0 -3.04956,-1.37009 -3.04956,-3.04956v-10.3641h-3.33684v10.3641c0,3.53573 2.85068,6.3864 6.3864,6.3864c3.53573,0 6.3864,-2.85068 6.3864,-6.3864z" data-paper-data="{&quot;glyphName&quot;:&quot;U&quot;,&quot;glyphIndex&quot;:14,&quot;word&quot;:2}"></path><path d="M352.81543,269.4085v0v-3.35894h-12.77281v3.35894h4.70693v13.39156h3.35894v-13.39156z" data-paper-data="{&quot;glyphName&quot;:&quot;T&quot;,&quot;glyphIndex&quot;:15,&quot;word&quot;:2}"></path><path d="M358.96612,282.80006v0h3.33684v-16.7505h-3.33684z" data-paper-data="{&quot;glyphName&quot;:&quot;I&quot;,&quot;glyphIndex&quot;:16,&quot;word&quot;:2}"></path><path d="M376.8289,266.04956v0c-4.61854,0 -8.37525,3.75671 -8.37525,8.37525c0,4.61854 3.75671,8.37525 8.37525,8.37525c4.61854,0 8.37525,-3.75671 8.37525,-8.37525c0,-4.61854 -3.75671,-8.37525 -8.37525,-8.37525zM376.8289,269.4085v0c2.76229,0 5.01631,2.25403 5.01631,5.01631c0,2.78438 -2.25403,5.03841 -5.01631,5.03841c-2.78438,0 -5.03841,-2.25403 -5.03841,-5.03841c0,-2.76229 2.25403,-5.01631 5.03841,-5.01631z" data-paper-data="{&quot;glyphName&quot;:&quot;O&quot;,&quot;glyphIndex&quot;:17,&quot;word&quot;:2}"></path><path d="M401.96201,277.2313v0l-6.69578,-11.18173h-3.9114v16.7505h3.33684v-11.15963l6.71788,11.15963h3.8893v-16.7505h-3.33684z" data-paper-data="{&quot;glyphName&quot;:&quot;N&quot;,&quot;glyphIndex&quot;:18,&quot;word&quot;:2}"></path><path d="M415.27255,275.97169v0c0.83973,0.19888 2.16563,0.06629 2.96117,0.53036c0.46406,0.26518 0.66295,0.77344 0.66295,1.2817c0,0.92813 -0.75134,1.67947 -1.65737,1.67947c-1.3259,0 -2.5192,-0.50826 -3.42523,-1.348l-2.36452,2.36452c1.50268,1.43639 3.53573,2.32032 5.78975,2.32032c2.76229,0 5.01631,-2.25403 5.01631,-5.01631c0,-2.82858 -2.09934,-4.72903 -4.83952,-4.86162c-0.83973,-0.0442 -1.70157,-0.15469 -2.23193,-0.75134c-0.24308,-0.30938 -0.39777,-0.68505 -0.39777,-1.08282c0,-0.92813 0.75134,-1.67947 1.67947,-1.67947c1.01652,0 1.96675,0.30938 2.74019,0.81764l2.40871,-2.40871c-1.41429,-1.10491 -3.20425,-1.76786 -5.1489,-1.76786c-2.76229,0 -5.01631,2.25403 -5.01631,5.03841c0,2.36452 1.63527,4.33126 3.823,4.88372z" data-paper-data="{&quot;glyphName&quot;:&quot;S&quot;,&quot;glyphIndex&quot;:19,&quot;lastGlyphOfWord&quot;:true,&quot;word&quot;:2}"></path><path d="M439.63959,282.80006v0h9.43597v-3.35894h-6.09913v-13.39156h-3.33684z" data-paper-data="{&quot;glyphName&quot;:&quot;L&quot;,&quot;glyphIndex&quot;:20,&quot;firstGlyphOfWord&quot;:true,&quot;word&quot;:3}"></path><path d="M465.78922,269.4085v0v-3.35894h-12.77281v3.35894h4.70693v13.39156h3.35894v-13.39156z" data-paper-data="{&quot;glyphName&quot;:&quot;T&quot;,&quot;glyphIndex&quot;:21,&quot;word&quot;:3}"></path><path d="M471.93991,282.80006v0h4.68484c4.61854,0 8.37525,-3.75671 8.37525,-8.37525c0,-4.61854 -3.75671,-8.37525 -8.37525,-8.37525h-4.68484zM475.27675,279.44112v0v-10.03262h1.348c2.78438,0 5.01631,2.25403 5.01631,5.01631c0,2.78438 -2.23193,5.01631 -5.01631,5.01631z" data-paper-data="{&quot;glyphName&quot;:&quot;D&quot;,&quot;glyphIndex&quot;:22,&quot;lastGlyphOfWord&quot;:true,&quot;word&quot;:3}"></path></g><g data-paper-data="{&quot;isPrimaryText&quot;:true}"><path d="M65,249.70025h0.73435c0.73435,-1.4687 1.4687,-2.20313 2.9374,-2.20313c3.67175,0 8.81229,3.67183 16.15588,3.67183c8.07794,0 13.4958,-2.96337 17.62458,-10.28107c1.2646,-2.24119 2.20305,-5.14046 2.20305,-8.07786c0,-9.54664 -6.60916,-14.68717 -14.6871,-18.35901c-6.60924,-3.67175 -16.15595,-6.60924 -16.15595,-15.42145c0,-2.20313 1.46878,-5.14053 2.93748,-6.60924c2.20305,-2.93748 4.40618,-3.67183 8.07794,-3.67183c9.54672,0 13.21847,9.54672 14.68717,17.62458h1.4687l-0.73435,-17.62458h-0.73435c0,1.4687 -0.73435,2.20313 -2.20305,2.20313c-1.4687,0 -2.79499,-0.60512 -4.40618,-1.46878c-2.89451,-1.55153 -5.14046,-2.20305 -8.81229,-2.20305c-6.60924,0 -12.48412,4.40618 -15.42153,10.28107c-0.73435,2.20305 -1.4687,4.40611 -1.4687,7.34351c0,5.87489 2.9374,10.28099 7.34351,13.21847c1.46878,0.73435 3.67183,2.20305 6.60931,3.67175c7.34359,3.67183 13.95282,6.60924 13.95282,16.15588c0,6.60924 -5.14053,11.74977 -11.74977,11.74977c-10.28107,0 -14.68717,-10.28107 -16.89023,-18.35893h-1.4687z" data-paper-data="{&quot;glyphName&quot;:&quot;S&quot;,&quot;glyphIndex&quot;:0,&quot;firstGlyphOfWord&quot;:true,&quot;word&quot;:1}"></path><path d="M131.25513,188.67308v-1.39329h-16.25547c-2.32222,4.18001 -1.39329,10.21774 2.78665,13.00439c1.39336,-5.5733 7.43109,-11.61111 13.46882,-11.61111zM131.25513,217.46852v-14.39768v-1.85779h-5.10879c-2.78673,0.46443 -4.64444,2.78665 -4.64444,5.5733v1.85779v27.86658c-0.46451,6.50216 -1.3135,12.74375 -9.20902,13.20826h-0.46443v1.39329h28.79543h1.39336v-1.39329c-6.50223,-0.92894 -9.83317,-6.7061 -10.2976,-12.74383c-0.46451,-1.85779 -0.46451,-5.10895 -0.46451,-9.28888v-7.89552l2.78673,-2.78665c3.71551,4.64436 20.05084,24.35486 20.05084,28.99938c0,3.251 -4.17994,3.71551 -6.50216,3.71551v1.39329h29.72429v-1.39329c-1.39329,0 -2.32222,-0.46451 -3.25108,-0.46451c-0.92894,-0.46443 -2.32222,-0.92878 -3.25116,-1.85771c-7.43101,-4.64444 -23.76642,-29.4638 -29.80415,-37.35932l14.86218,-13.93325c3.71551,-3.71551 6.96659,-7.43109 12.53988,-7.89552v-0.92886h-19.97098v0.92886c1.85779,0.46443 3.25108,0.46443 4.17994,0.92894c1.39336,0.92878 1.85779,1.85771 1.85779,3.25108c0,2.32222 -2.32214,4.64444 -4.17994,6.03773z" data-paper-data="{&quot;glyphName&quot;:&quot;K&quot;,&quot;glyphIndex&quot;:1,&quot;word&quot;:1}"></path><path d="M202.80108,251.1153h29.19536v-1.14497c-4.57971,0 -8.5869,-1.71741 -9.15934,-6.29697c-1.14497,-2.86238 -1.14497,-20.90108 0,-23.76338c0.57244,-4.00727 9.73179,-16.60128 12.59409,-20.60854c3.43474,-5.15216 6.29704,-10.30423 13.16653,-10.87668v-1.14497h-21.18099v1.14497c4.00727,0 7.44201,1.71741 7.44201,6.29697c0,2.86238 -1.71741,4.57971 -2.8623,6.86957l-10.87668,16.60128l-12.59409,-19.46358c-4.57971,-7.44193 -2.28986,-9.73179 5.15208,-10.30423v-1.14497h-29.76781v1.14497c2.8623,0 4.57971,0.57244 6.86949,2.28986c5.15216,5.72452 18.89113,26.33299 20.60846,31.48514c0.57244,1.71741 1.15238,2.8623 1.14497,4.00719c-0.03096,4.73709 0,13.45915 -0.57252,17.46642c-1.14481,4.57955 -5.15208,6.29697 -9.15927,6.29697z" data-paper-data="{&quot;glyphName&quot;:&quot;Y&quot;,&quot;glyphIndex&quot;:2,&quot;word&quot;:1}"></path><path d="M255.17826,251.24882h55.53997l0.72601,-19.23936h-1.08897c-0.36304,2.9041 -1.08905,5.08212 -1.81505,6.89717c-0.72601,1.81498 -1.81505,3.63003 -2.9041,4.719c-1.45193,2.1781 -3.63003,3.63011 -6.17109,4.71916c-2.54098,1.08897 -5.44508,1.45201 -9.43816,1.45201c-3.26707,0 -6.17109,-0.36304 -8.34919,-1.45201c-2.17802,-1.08905 -3.99307,-2.9041 -5.08204,-5.08212c-0.36296,-1.08905 -0.72601,-2.90402 -1.08905,-5.08212c-0.36296,-1.81498 -0.36296,-5.08204 -0.36296,-9.07511v-27.2255c0,-3.26707 0.36296,-5.44508 0.72601,-7.26014c0.36304,-1.45201 1.08905,-2.54106 2.17802,-3.63003c0.72601,-0.72608 1.45201,-1.45209 2.54106,-1.81505c1.45201,-0.36304 2.54106,-0.72601 4.35611,-0.72601v-1.08905h-29.76656v1.08905c1.81505,0 2.90402,0.36296 3.99307,0.72601c1.08905,0.36296 1.8847,0.93221 2.90402,1.81505c0.9893,0.85687 1.81505,2.17802 2.1781,3.63003c0.72601,1.81505 0.72601,3.99307 0.72601,7.26014v34.8486c0,2.90402 0,5.44508 -0.36304,6.8971c-0.36296,1.81505 -1.08905,2.9041 -2.17802,3.99307c-1.81505,1.81505 -3.99307,2.54106 -7.26014,2.54106z" data-paper-data="{&quot;glyphName&quot;:&quot;L&quot;,&quot;glyphIndex&quot;:3,&quot;word&quot;:1}"></path><path d="M355.3497,187.2798h-35.02626v2.34889h4.69771c7.0466,2.34882 7.10767,9.39581 7.0466,16.44202l-0.3664,25.82816c0,9.39542 0,16.44202 -11.74431,16.44202v2.34889h35.02626v-2.34889c-11.37792,0 -11.57991,-7.07476 -11.53764,-16.44202l0.3664,-25.82816c0.06107,-7.04621 0,-14.09321 7.0466,-16.44202h4.49104z" data-paper-data="{&quot;glyphName&quot;:&quot;I&quot;,&quot;glyphIndex&quot;:4,&quot;word&quot;:1}"></path><path d="M371.52195,239.48945v-44.2175l41.56235,55.72449h1.97509v-49.97104c0,-3.00549 0.17173,-5.23818 0.5152,-6.69799c0.34347,-1.45981 0.94461,-2.6621 1.88922,-3.60671c1.63154,-1.63154 3.9501,-2.49029 6.8698,-2.49029v-1.03048h-20.3518v1.03048c1.71741,0.08587 3.09143,0.2576 4.12191,0.68701c1.03048,0.34347 1.97509,0.94461 2.74789,1.80328c0.94461,0.94461 1.54568,2.1469 1.88922,3.60671c0.34347,1.45981 0.51528,3.6925 0.51528,6.69799v35.45848l-35.80889,-49.28395h-17.00277v1.03048c4.20778,0.17181 6.44047,1.37402 9.27422,4.63719v46.19252c-0.08587,2.06096 -0.2576,3.60663 -0.5152,4.80884c-0.34347,1.45981 -0.94461,2.6621 -1.88922,3.60663c-0.77288,0.85874 -1.71741,1.45981 -2.74789,1.80336c-1.11634,0.42933 -2.49029,0.60107 -4.12191,0.68693v1.03056h20.3518v-1.03056c-1.71741,-0.08587 -3.00549,-0.2576 -4.12191,-0.68693c-1.03048,-0.34354 -1.97509,-0.94461 -2.74789,-1.80336c-0.94461,-0.94453 -1.54568,-2.14682 -1.88922,-3.60663c-0.2576,-1.03048 -0.42933,-2.49029 -0.51528,-4.37951z" data-paper-data="{&quot;glyphName&quot;:&quot;N&quot;,&quot;glyphIndex&quot;:5,&quot;word&quot;:1}"></path><path d="M480.70168,187.2798h-30.28394h-13.28578h-3.32143c-2.73533,4.49369 -1.56307,10.35508 2.93062,13.48114c1.56307,-6.44749 6.83837,-11.13662 13.09049,-12.11352h0.58609h3.71223h7.03373c3.12606,0 5.86139,0.39073 7.81519,0.78153c2.14908,0.39073 3.9076,1.17226 5.27522,2.34453c1.75843,1.17226 3.12606,2.73533 4.10296,4.49377c0.9769,1.75843 1.56307,3.9076 1.9538,6.64293l1.17226,-0.19544zM450.22237,201.73792h-5.07986c-2.73533,0.39073 -5.07986,2.73533 -5.07986,5.66595v29.1116c0,3.12614 -0.19544,5.66603 -0.39073,7.22902c-0.39081,1.36771 -1.17234,2.73533 -2.14924,3.71231c-1.75836,1.9538 -4.49369,2.73525 -7.22902,2.73525v0.9769h34.58219h19.53798l0.58617,-18.56108h-1.17226c-0.58617,2.73533 -1.17226,5.07994 -1.9538,6.83829c-0.58617,1.56307 -1.56307,3.12606 -2.73533,4.49377c-1.56307,1.9538 -3.51687,3.51687 -6.05684,4.49369c-2.53989,0.97698 -3.9076,1.36771 -7.61975,1.36771c-3.51687,0 -6.44756,-0.58617 -8.59673,-1.56307c-2.14916,-0.9769 -3.9076,-2.73525 -4.88449,-4.88449c-0.58609,-1.36763 -1.17226,-2.9307 -1.36763,-4.88449c-0.19544,-1.9538 -0.19544,-5.07986 -0.19544,-9.37818zM457.06066,216.78213v1.9538c0.58617,0 1.17226,0.19536 1.75843,0.39073c2.9307,0.78153 4.88449,2.93077 5.86139,5.86139c0.58609,1.56307 0.9769,3.3215 1.36763,5.86139h0.97698l0.19529,-25.20393h-0.97682c-0.39081,2.53989 -0.78153,4.29832 -1.17226,5.47059c-1.36771,3.9076 -4.10304,5.27522 -8.01063,5.66603z" data-paper-data="{&quot;glyphName&quot;:&quot;E&quot;,&quot;glyphIndex&quot;:6,&quot;lastGlyphOfWord&quot;:true,&quot;word&quot;:1}"></path></g></g></g></svg>